<svg xmlns="http://www.w3.org/2000/svg" width="24" height="24" viewBox="0 0 24 24">
    <path fill="#1C0920" fill-rule="nonzero" d="M12.829 11.69c-.177.696-.3 1.16-.333 1.237-.011.04-.017.078-.026.118l8.58-4.38.252-.13.149-.075c.226-.116.42.108.537.336.117.227 1.203 2.448 1.365 2.759-.35.226-.554.108-.679-.137l-.963-1.87-.162.082-.168.086 1.097 2.133-.309.158-1.097-2.133-.272.138 1.097 2.133-.309.16-1.097-2.134-.26.133 1.098 2.133-.31.158-1.097-2.133-.269.137 1.098 2.133-.31.158-1.098-2.132-.26.132 1.098 2.133-.31.159-1.097-2.134-.218.112 1.097 2.133-.31.158-1.098-2.133-.26.133 1.098 2.133-.31.158-1.097-2.132-.275.14 1.098 2.133-.31.158-1.098-2.134-.259.133 1.098 2.133-.31.158-1.098-2.133-.268.137 1.097 2.133-.31.158-1.097-2.132-.26.133 1.097 2.133-.31.157-1.097-2.133-.254.13 1.098 2.133-.31.159-1.097-2.133-.26.132 1.097 2.133-.31.158-1.098-2.133-.268.137 1.099 2.13-.31.158-1.098-2.132-.26.132 1.097 2.133-.31.158-1.097-2.132-.219.112 1.098 2.132-.31.159-1.098-2.133-.26.132 1.098 2.133-.31.158-.77-1.496c.03.339.082.656.144.953l.352.683-.155.079c.196.636.407 1.07.46 1.173.539.72.633 1.758.204 2.679a2.763 2.763 0 0 1-1.377 1.371c-.614.27-1.268.273-1.841.007a2.059 2.059 0 0 1-.49-.316c-.813-.698-1.028-1.943-.523-3.024.018-.04.042-.08.062-.119l-1.09-2.118-.26.133 1.098 2.134-.31.158L7.5 16.803l-.268.138 1.097 2.133-.31.158L6.92 17.1l-.26.132 1.098 2.133-.31.158L6.35 17.39l-.217.112 1.097 2.132-.31.159-1.098-2.133-.26.132 1.098 2.132-.31.159-1.097-2.133-.206.106-.161.082s.836 1.628.963 1.871c.125.245.102.478-.287.63-.16-.313-1.336-2.488-1.453-2.716-.117-.226-.186-.515.04-.631l.4-.203 6.713-3.427.653-1.544-.53-1.256L15.02 2l.078.482s-1.052 4.338-1.82 7.426c2.917-1.202 6.805-2.781 6.805-2.781l.513-.01-7.766 4.574zm-.875-1.026a.396.396 0 0 0 .04.56.4.4 0 0 0 .563-.04.397.397 0 0 0-.041-.56.4.4 0 0 0-.562.04zm-1.314 4.563l-.054.03.024.047.03-.077zm-.377.165l-.26.134.258.5.148-.35-.146-.284zm-.57.292l-.217.112.485.942.124-.294-.392-.76zm-.528.27l-.259.132.73 1.418.147-.349-.618-1.201zm-.569.29l-.219.112.957 1.86.125-.295-.863-1.676zm4.046 4.152c.363-.778.226-1.658-.333-2.138a1.379 1.379 0 0 0-.315-.202c-.373-.173-.806-.168-1.217.013a2.01 2.01 0 0 0-.997 1c-.363.778-.226 1.656.333 2.138.095.08.201.15.314.202.374.173.806.168 1.218-.014.43-.188.783-.544.997-1zm-7.849-5.009c-.997.635-2.256.595-3.059-.097a2.088 2.088 0 0 1-.399-.459c-.34-.53-.425-1.176-.237-1.818A2.756 2.756 0 0 1 2.28 11.47c.836-.532 1.855-.587 2.637-.183.185.067 2.771.97 5.22-.03.047-.029.256-.12.58-.258l.306.725-.004-.001-6.221 3.671.006-.016-.011.008zm-2.566-.667c.554.477 1.441.49 2.16.033.425-.272.732-.668.863-1.117.125-.43.072-.857-.149-1.203a1.353 1.353 0 0 0-.256-.294c-.553-.476-1.441-.49-2.159-.033a2.007 2.007 0 0 0-.863 1.115c-.126.432-.073.859.15 1.205.07.11.155.209.254.294z"/>
</svg>
