<svg xmlns="http://www.w3.org/2000/svg" width="24" height="24" viewBox="0 0 24 24">
    <g fill="none" fill-rule="evenodd">
        <path stroke="#1C0920" d="M17.296 18.108l.633 2.436c.086.333.04.687-.127.988a.523.523 0 0 1-.724.193L3.46 13.622a.551.551 0 0 1-.199-.743c.168-.3.449-.52.78-.611l2.35-.65 2.623-4.683c1.613-2.88 4.444-4.398 7.404-3.486l.357-.637c.436-.777 1.396-1.043 2.15-.594.754.45 1.012 1.44.576 2.217l-.357.636c2.247 2.187 2.387 5.474.774 8.354l-2.623 4.683z"/>
        <circle cx="9" cy="20" r="2" fill="#1C0920"/>
    </g>
</svg>
