<svg xmlns="http://www.w3.org/2000/svg" width="16" height="16" fill="none" viewBox="0 0 16 16">
    <path fill="#17B53A" d="M6.934 9.578V16H1.65a1.243 1.243 0 0 1-1.244-1.244V9.578h6.527zM8.802 9.578h6.524v5.178c0 .688-.557 1.244-1.243 1.244h-5.28V9.578zm4.829 5.117c.258 0 .467-.21.467-.467v-2.59a.467.467 0 0 0-.934 0v2.59c0 .258.21.467.467.467zM1.243 4.71H3.58c-.323-.155-.593-.315-.757-.478A2.464 2.464 0 1 1 6.307.748c.4.4.784 1.385 1.098 2.402.146-.04.297-.069.456-.069.158 0 .309.029.455.068.315-1.025.702-2.025 1.106-2.428A2.455 2.455 0 0 1 11.164 0a2.464 2.464 0 0 1 1.742 4.206c-.172.172-.462.341-.81.504h2.388c.686 0 1.243.556 1.243 1.243V7.01c0 .687-.557 1.243-1.243 1.243H8.798V4.76H6.93v3.494H1.243A1.243 1.243 0 0 1 0 7.01V5.953C0 5.266.557 4.71 1.243 4.71zm4.184-3.082a1.21 1.21 0 0 0-.862-.357c-.326 0-.632.127-.862.357-.23.23-.357.536-.357.862 0 .325.127.631.356.86.257.242 1.264.62 2.51.973.035-.121.082-.235.143-.344-.34-1.172-.696-2.105-.928-2.35zm6.598-.026a1.211 1.211 0 0 0-.861-.357c-.326 0-.632.127-.861.356-.234.248-.595 1.194-.937 2.378.057.102.102.209.137.321 1.252-.352 2.265-.732 2.522-.975a1.22 1.22 0 0 0 0-1.723z"/>
</svg>
