<svg xmlns="http://www.w3.org/2000/svg" width="48" height="48" fill="none" viewBox="0 0 48 48">
    <rect width="46.5" height="46.5" x=".75" y=".75" fill="#fff" stroke="#3F3F3F" stroke-width="1.5" rx="2.25"/>
    <path fill="#3F3F3F" d="M15.738 29.944c.364-1.444 1.729-2.517 3.356-2.517 1.906 0 3.451 1.471 3.451 3.286C22.546 32.53 21 34 19.096 34c-1.628 0-2.993-1.073-3.357-2.517h-1.93c-.446 0-.808-.345-.808-.77 0-.425.362-.769.808-.769h1.93zm7.05-6.713c.363-1.444 1.727-2.518 3.355-2.518 1.906 0 3.451 1.472 3.451 3.287s-1.545 3.287-3.45 3.287c-1.628 0-2.993-1.074-3.357-2.518h-8.98c-.445 0-.807-.344-.807-.769 0-.425.362-.77.808-.77h8.98zm-7.05-6.714C16.102 15.073 17.467 14 19.094 14c1.906 0 3.451 1.472 3.451 3.287s-1.545 3.286-3.45 3.286c-1.628 0-2.993-1.073-3.357-2.517h-1.93c-.446 0-.808-.345-.808-.77 0-.424.362-.769.808-.769h1.93zm9.524 1.539c-.446 0-.808-.345-.808-.77 0-.424.362-.769.808-.769h7.93c.446 0 .808.345.808.77 0 .425-.362.769-.808.769h-7.93zm7.05 6.713c-.447 0-.808-.344-.808-.769 0-.425.361-.77.807-.77h.881c.446 0 .808.345.808.77 0 .425-.362.77-.808.77h-.88zm-7.05 6.714c-.446 0-.808-.345-.808-.77 0-.425.362-.769.808-.769h7.93c.446 0 .808.345.808.77 0 .424-.362.769-.808.769h-7.93zm-6.168-12.448c1.014 0 1.836-.783 1.836-1.748 0-.966-.822-1.748-1.836-1.748-1.013 0-1.835.782-1.835 1.748 0 .965.822 1.748 1.835 1.748zm7.05 6.713c1.013 0 1.835-.783 1.835-1.748s-.822-1.748-1.836-1.748c-1.014 0-1.835.783-1.835 1.748s.822 1.748 1.835 1.748zm-7.05 6.713c1.014 0 1.836-.782 1.836-1.748 0-.965-.822-1.748-1.836-1.748-1.013 0-1.835.783-1.835 1.748 0 .966.822 1.748 1.835 1.748z"/>
</svg>
