<svg xmlns="http://www.w3.org/2000/svg" width="24" height="22" fill="none" viewBox="0 0 24 22">
    <path fill="#FC4945" d="M21.749 1.864h-2.591v-.466C19.157.63 18.532 0 17.768 0c-.763 0-1.388.63-1.388 1.398v.466h-3.147v-.466C13.234.63 12.61 0 11.846 0c-.763 0-1.388.63-1.388 1.398v.466H7.31v-.466C7.311.63 6.687 0 5.923 0 5.16 0 4.535.63 4.535 1.398v.466H1.944A1.95 1.95 0 0 0 0 3.822V19.67A2.323 2.323 0 0 0 2.314 22h7.454a.466.466 0 0 0 0-.932H2.314c-.764 0-1.389-.63-1.389-1.399V6.525h21.842V19.67c0 .77-.625 1.399-1.388 1.399h-7.446a.466.466 0 0 0 0 .932h7.446a2.323 2.323 0 0 0 2.313-2.33V3.821a1.95 1.95 0 0 0-1.943-1.958zm-4.442-.466c0-.256.208-.466.462-.466.255 0 .463.21.463.466v1.865a.466.466 0 0 1-.463.466.466.466 0 0 1-.462-.466V1.398zm-5.924 0c0-.256.209-.466.463-.466.255 0 .463.21.463.466v1.865a.466.466 0 0 1-.463.466.466.466 0 0 1-.463-.466V1.398zm-5.923 0c0-.256.209-.466.463-.466.255 0 .463.21.463.466v1.865a.466.466 0 0 1-.463.466.466.466 0 0 1-.463-.466V1.398zM.925 5.593V3.822c0-.564.459-1.025 1.019-1.025h2.59v.466c0 .769.626 1.398 1.39 1.398.763 0 1.387-.63 1.387-1.398v-.466h3.147v.466c0 .769.625 1.398 1.388 1.398.764 0 1.388-.63 1.388-1.398v-.466h3.147v.466c0 .769.625 1.398 1.388 1.398.764 0 1.389-.63 1.389-1.398v-.466h2.59c.56 0 1.019.461 1.019 1.025v1.771H.925z"/>
    <path fill="#FC4945" d="M7.22 8.758a.466.466 0 0 0-.464-.466H3.055a.466.466 0 0 0-.463.466v3.729c0 .256.208.466.463.466h3.701c.255 0 .463-.21.463-.466V8.758zm-.926 3.263H3.517V9.224h2.777v2.797zM9.994 12.953h3.702c.254 0 .463-.21.463-.466V8.758a.466.466 0 0 0-.463-.466H9.994a.466.466 0 0 0-.463.466v3.729c0 .256.208.466.463.466zm.463-3.729h2.776v2.797h-2.776V9.224zM16.933 12.953h3.702c.255 0 .463-.21.463-.466V8.758a.466.466 0 0 0-.463-.466h-3.702a.466.466 0 0 0-.462.466v3.729c0 .256.208.466.462.466zm.463-3.729h2.777v2.797h-2.777V9.224zM6.756 14.63H3.055a.466.466 0 0 0-.463.467v3.729c0 .256.208.466.463.466h3.701c.255 0 .463-.21.463-.466v-3.729a.463.463 0 0 0-.463-.466zm-.462 3.73H3.517v-2.797h2.777v2.797zM9.531 18.826c0 .256.208.466.463.466h3.702c.254 0 .463-.21.463-.466v-3.729a.466.466 0 0 0-.463-.466H9.994a.466.466 0 0 0-.463.466v3.729zm.926-3.263h2.776v2.797h-2.776v-2.797zM16.47 18.826c0 .256.209.466.463.466h3.702c.255 0 .463-.21.463-.466v-3.729a.466.466 0 0 0-.463-.466h-3.702a.466.466 0 0 0-.462.466v3.729zm.926-3.263h2.777v2.797h-2.777v-2.797z"/>
</svg>
