<svg xmlns="http://www.w3.org/2000/svg" width="24" height="24" viewBox="0 0 24 24">
    <path fill="#1C0920" fill-rule="nonzero" d="M12 21.464l-4.592 1.623-2.1-4.395-4.395-2.1L2.536 12 .913 7.408l4.395-2.1 2.1-4.395L12 2.536 16.592.913l2.1 4.395 4.395 2.1L21.464 12l1.623 4.592-4.395 2.1-2.1 4.395L12 21.464zm.245-6.617c.003.386.095.741.276 1.068.181.326.447.588.797.787.351.199.782.298 1.294.298.513 0 .947-.1 1.304-.298.357-.199.628-.461.812-.787.185-.327.275-.682.272-1.068v-.48a2.129 2.129 0 0 0-.27-1.077 2.009 2.009 0 0 0-.806-.783c-.356-.196-.793-.293-1.312-.293-.505 0-.933.099-1.284.298-.35.198-.618.46-.802.787a2.172 2.172 0 0 0-.281 1.068v.48zM7 9.633c.003.386.095.74.276 1.064.181.323.447.582.798.778.35.196.782.294 1.294.294s.947-.097 1.304-.29c.357-.192.628-.45.812-.773a2.09 2.09 0 0 0 .271-1.073v-.48a2.129 2.129 0 0 0-.269-1.076 2.009 2.009 0 0 0-.807-.783C10.324 7.098 9.886 7 9.368 7c-.5 0-.925.098-1.277.294a2.05 2.05 0 0 0-.807.783c-.186.326-.28.685-.284 1.076v.48zm.548 6.922h1.39l6.888-9.11h-1.39l-6.888 9.11zm6.4-2.188c.006-.178.054-.35.143-.516.09-.167.264-.25.521-.25.281 0 .464.083.548.25.085.166.124.338.118.516v.48a.949.949 0 0 1-.125.507c-.09.16-.27.24-.54.24-.258 0-.432-.082-.522-.247a1.129 1.129 0 0 1-.144-.5v-.48zM8.721 9.153c.007-.169.051-.339.135-.51.083-.17.253-.255.51-.255.281 0 .464.083.549.249.085.166.124.338.117.516v.48a.949.949 0 0 1-.125.508c-.09.16-.27.24-.54.24-.248 0-.416-.08-.504-.24a1.125 1.125 0 0 1-.142-.508v-.48z"/>
</svg>
