<svg xmlns="http://www.w3.org/2000/svg" width="24" height="24" viewBox="0 0 24 24">
    <path fill="#1C0920" fill-rule="nonzero" d="M6.135 15.258L.27 9.393a.922.922 0 0 1 0-1.303L8.09.27a.922.922 0 0 1 1.303 0l5.865 5.865a1.843 1.843 0 1 0 2.607 2.607l5.865 5.865c.36.36.36.943 0 1.303l-7.82 7.82a.922.922 0 0 1-1.303 0l-5.865-5.865a1.843 1.843 0 1 0-2.607-2.607zm8.146-6.19l-1.303 1.303.782.782 1.303-1.304-.782-.782zm-1.955 1.954l-1.304 1.304.782.782 1.304-1.304-.782-.782zm-1.955 1.956L9.067 14.28l.782.782 1.304-1.303-.782-.782z"/>
</svg>
